<svg viewBox="0 0 24 24" xmlns="http://www.w3.org/2000/svg">
  <path d="M2 20h2c.55 0 1-.45 1-1v-1c0-.55-.45-1-1-1H2v-2h2c.55 0 1-.45 1-1v-1c0-.55-.45-1-1-1H2V9h2c.55 0 1-.45 1-1V7c0-.55-.45-1-1-1H2V4h2c.55 0 1-.45 1-1V2c0-.55-.45-1-1-1H2c-.55 0-1 .45-1 1v18c0 .55.45 1 1 1zm20 0h-2c-.55 0-1-.45-1-1v-1c0-.55.45-1 1-1h2v-2h-2c-.55 0-1-.45-1-1v-1c0-.55.45-1 1-1h2V9h-2c-.55 0-1-.45-1-1V7c0-.55.45-1 1-1h2V4h-2c-.55 0-1-.45-1-1V2c0-.55.45-1 1-1h2c.55 0 1 .45 1 1v18c0 .55-.45 1-1 1zM11 9.5l1.5 1.5L14 9.5 12.5 8 11 9.5zm-4 4l1.5 1.5L10 13.5 8.5 12 7 13.5zm10 0l1.5 1.5L20 13.5 18.5 12 17 13.5zm-6 3l1.5 1.5L14 16.5 12.5 15 11 16.5z"/>
</svg>