<svg viewBox="0 0 24 24" xmlns="http://www.w3.org/2000/svg">
  <path d="M13.5.67s.74 2.65.74 4.8c0 2.06-1.35 3.73-3.41 3.73-2.07 0-3.63-1.67-3.63-3.73l.03-.36C5.21 7.51 4 10.62 4 14c0 4.42 3.58 8 8 8s8-3.58 8-8C20 8.61 17.41 3.8 13.5.67zM12 20c-3.31 0-6-2.69-6-6 0-1.53.3-3.03.86-4.36 1.35.91 2.58 2.03 3.61 3.41.34-1.09.89-2.09 1.58-2.97.08.3.15.61.15.92 0 1.66-1.34 3-3 3s-3-1.34-3-3c0-.46.11-.89.3-1.27-.34.48-.65 1-.91 1.57C5.38 9.38 5 10.65 5 12c0 3.31 2.69 6 6 6 2.61 0 4.83-1.67 5.65-4h1.35C17.19 16.95 14.84 19 12 19c-3.87 0-7-3.13-7-7 0-2.29 1.1-4.32 2.8-5.6.2.67.32 1.37.32 2.1 0 1.1-.3 2.13-.82 3.02-.12.21-.26.41-.41.6.29-.13.59-.27.88-.42 1.04-.55 1.93-1.32 2.62-2.25-.19.54-.44 1.06-.73 1.55-.52.91-1.21 1.71-2.02 2.37.08-.14.15-.28.22-.42.37-.8.57-1.68.57-2.6 0-.95-.21-1.85-.59-2.65-.17.58-.42 1.13-.73 1.64-.65 1.07-1.56 1.95-2.64 2.56-.13.07-.26.14-.39.2.23-.35.43-.72.6-1.11.32-.73.5-1.54.5-2.39 0-.95-.21-1.85-.59-2.65-.17.58-.42 1.13-.73 1.64-.65 1.07-1.56 1.95-2.64 2.56z"/>
</svg>